# xmcd
#
# Track frame offsets:
#	150
#	15178
#	29873
#	43084
#	52423
#	63659
#	76209
#	90328
#	104734
#	116497
#	126691
#	138960
#	147798
#	157802
#	169427
#	183696
#	196090
#	208261
#	219155
#	229548
#	243084
#	256459
#	270655
#	283980
#	295878
#	307259
#	318845
#
# Disc length: 4397 seconds
#
# Revision: 0
# Processed by: cddbd v1.5.2PL0 Copyright (c) Steve Scherf et al.
# Submitted via: dBpowerAMP V4.0
#
DISCID=9e112b1b
DTITLE=Mireille - Ce petit chemin
DYEAR=1900
DGENRE=
TTITLE0=puisque vous partez en voyage
TTITLE1=couchés dans le foin
TTITLE2=ce petit garçon
TTITLE3=les trois gendarmes
TTITLE4=papa n'a pas voulu
TTITLE5=les pieds dans l'eau
TTITLE6=presque oui
TTITLE7=le petit pot de lait
TTITLE8=l'amiral bizibi
TTITLE9=les trois petits lutins
TTITLE10=faut-il que je vous fasse un petit dessin ?
TTITLE11=tout petit
TTITLE12=ah il est pourtant temps de se marier
TTITLE13=chourinette
TTITLE14=ma grand mère était garde barrière
TTITLE15=les petits chapeaux
TTITLE16=c'est un jardinier qui boîte
TTITLE17=et hop ! nous v'là repartis !
TTITLE18=vingt et vingt
TTITLE19=la partie de bridge
TTITLE20=tant pis pour la rime
TTITLE21=et voilà les hommes
TTITLE22=fermé jusqu'à lundi
TTITLE23=qu'on est bien en chemise
TTITLE24=quand on est au volant
TTITLE25=la dame du vestiaire
TTITLE26=la java des fleurs d'oranger
EXTD=
EXTT0=
EXTT1=
EXTT2=
EXTT3=
EXTT4=
EXTT5=
EXTT6=
EXTT7=
EXTT8=
EXTT9=
EXTT10=
EXTT11=
EXTT12=
EXTT13=
EXTT14=
EXTT15=
EXTT16=
EXTT17=
EXTT18=
EXTT19=
EXTT20=
EXTT21=
EXTT22=
EXTT23=
EXTT24=
EXTT25=
EXTT26=
PLAYORDER=
